<svg width="20" height="20" viewBox="0 0 20 20" fill="none" xmlns="http://www.w3.org/2000/svg">
<path d="M8.48334 14.6687L16.1208 7.03115L14.6042 5.51449L8.48334 11.6353L5.39584 8.54782L3.87917 10.0645L8.48334 14.6687ZM2.41667 19.8687C1.82084 19.8687 1.31059 19.6563 0.885918 19.2317C0.461252 18.807 0.24928 18.2971 0.250002 17.702V2.53532C0.250002 1.93949 0.462335 1.42924 0.887002 1.00457C1.31167 0.579904 1.82156 0.367932 2.41667 0.368654H17.5833C18.1792 0.368654 18.6894 0.580988 19.1141 1.00565C19.5388 1.43032 19.7507 1.94021 19.75 2.53532V17.702C19.75 18.2978 19.5377 18.8081 19.113 19.2327C18.6883 19.6574 18.1784 19.8694 17.5833 19.8687H2.41667Z" fill="#82B2C2"/>
</svg>
