<svg width="301" height="322" viewBox="0 0 301 322" fill="none" xmlns="http://www.w3.org/2000/svg">
<path d="M144.418 41.0293H161.947V61.5015H144.418V41.0293Z" fill="#F58D79"/>
<path d="M158.369 46.5431C158.369 46.5431 147.756 50.8032 147.868 56.1504C147.981 61.4975 145.872 60.8785 145.872 60.8785L144.418 58.2902V43.7891L158.865 44.9589L158.374 46.5479L158.369 46.5431Z" fill="#F37260"/>
<path d="M158.497 47.0004L157.909 62.1303L162.076 59.8735L161.948 44.9678L158.497 47.0004Z" fill="#F9B5A9"/>
<path d="M172.569 21.3761C173.997 19.2655 175.451 14.2303 170.741 8.14717C170.639 8.01557 170.557 7.87421 170.5 7.71823C169.973 6.2998 166.149 0.119141 151.522 0.119141C136.895 0.119141 133.859 7.38677 133.219 8.8637C133.153 9.01968 133.101 9.17078 132.989 9.30239C132.103 10.3309 127.454 14.4107 132.303 22.429C132.615 22.9457 133.199 23.2674 133.823 23.2674H169.221C169.814 23.2674 172.246 21.8538 172.569 21.3761Z" fill="#BCBEC0"/>
<path d="M132.32 22.2678C132.32 22.2678 132.883 23.3986 134.404 23.1062L134.675 11.3298C134.675 11.3298 141.244 13.182 151.176 13.2454C151.176 13.2454 144.326 10.9886 143.604 5.53417C142.877 0.0846644 146.886 0.235769 146.886 0.235769C146.886 0.235769 135.991 1.70782 133.006 9.14118C133.006 9.14118 127.006 13.8205 132.32 22.2678Z" fill="#939598"/>
<path d="M168.65 22.7645C168.65 22.7645 171.87 19.4889 175.198 21.6678C178.787 24.0172 176.053 33.6391 168.419 32.3231L168.65 22.7645Z" fill="#F9B5A9"/>
<path d="M171.923 28.3406C171.405 28.3406 170.986 27.5549 170.986 26.5858C170.986 25.6167 171.405 24.8311 171.923 24.8311C172.44 24.8311 172.859 25.6167 172.859 26.5858C172.859 27.5549 172.44 28.3406 171.923 28.3406Z" fill="#F27386"/>
<path d="M162.99 9.69727C162.99 9.69727 163.349 19.1486 168.75 20.4159C168.75 20.4159 168.76 36.3306 167.875 39.109C167.26 41.0246 159.012 49.3012 149.377 49.3012C139.261 49.3012 135.708 41.4877 134.786 38.1049C133.865 34.7221 133.604 19.4703 133.604 19.4703C133.604 19.4703 134.413 14.6642 134.413 11.0328C134.413 11.0328 138.083 12.8705 148.481 12.8705C158.879 12.8705 162.996 9.69727 162.996 9.69727H162.99Z" fill="#F8A38E"/>
<path d="M149.64 19.6116C153.433 19.2802 157.002 19.4508 160.744 19.948C157.447 18.125 153.049 17.9446 149.64 19.6116Z" fill="#3C1B4E"/>
<path d="M141.469 19.6123C139.349 17.9404 135.863 18.1549 133.892 19.9486C136.477 19.4661 138.807 19.276 141.469 19.6123Z" fill="#3C1B4E"/>
<path d="M153.184 28.8089C152.076 28.8089 151.178 27.3358 151.178 25.5187C151.178 23.7016 152.076 22.2285 153.184 22.2285C154.293 22.2285 155.191 23.7016 155.191 25.5187C155.191 27.3358 154.293 28.8089 153.184 28.8089Z" fill="#3C1B4E"/>
<path d="M153.756 27.1378C153.106 27.1378 152.579 26.2714 152.579 25.2027C152.579 24.134 153.106 23.2676 153.756 23.2676C154.406 23.2676 154.934 24.134 154.934 25.2027C154.934 26.2714 154.406 27.1378 153.756 27.1378Z" fill="white"/>
<path d="M138.284 28.8089C137.176 28.8089 136.277 27.3358 136.277 25.5187C136.277 23.7016 137.176 22.2285 138.284 22.2285C139.392 22.2285 140.291 23.7016 140.291 25.5187C140.291 27.3358 139.392 28.8089 138.284 28.8089Z" fill="#3C1B4E"/>
<path d="M151.365 41.0293C151.365 41.0293 146.235 44.2269 140.373 41.0293" stroke="#3C1B4E" stroke-width="2" stroke-miterlimit="10" stroke-linecap="round"/>
<path d="M145.182 23.9844L141.608 30.2138C141.132 31.0424 141.915 31.9393 143.292 32.1538L145.182 32.4462V23.9893V23.9844Z" fill="#F37260"/>
<path d="M138.862 26.7374C138.211 26.7374 137.684 25.871 137.684 24.8023C137.684 23.7336 138.211 22.8672 138.862 22.8672C139.512 22.8672 140.039 23.7336 140.039 24.8023C140.039 25.871 139.512 26.7374 138.862 26.7374Z" fill="white"/>
<path d="M157.308 24.6571C158.045 24.5255 158.798 24.4427 159.505 24.2331C159.73 24.1307 159.95 24.0089 160.145 23.8139L160.129 23.7651C159.586 23.653 159.121 23.7993 158.655 24.0235C158.194 24.2038 157.738 24.3988 157.288 24.6084L157.303 24.6571H157.308Z" fill="#F37260"/>
<path d="M157.581 25.3394C158.334 25.4758 159.081 25.6708 159.839 25.7244C160.095 25.7098 160.351 25.6757 160.617 25.5636V25.5148C160.146 25.2175 159.644 25.1882 159.117 25.2321C158.61 25.237 158.098 25.2565 157.586 25.2906V25.3394H157.581Z" fill="#F37260"/>
<path d="M157.34 26.2411C157.99 26.5726 158.63 26.9577 159.311 27.2062C159.552 27.2599 159.803 27.294 160.079 27.255L160.1 27.2111C159.757 26.8066 159.301 26.6408 158.794 26.5433C158.323 26.4166 157.842 26.2996 157.361 26.1924L157.34 26.2363V26.2411Z" fill="#F37260"/>
<path d="M135.633 24.5643C135.305 24.2816 135.003 23.9502 134.634 23.7406C134.542 23.7162 134.199 23.6333 134.117 23.7601C134.215 24.1061 134.45 24.2524 134.773 24.3304C135.044 24.4327 135.326 24.5253 135.607 24.6082L135.633 24.5643Z" fill="#F37260"/>
<path d="M135.464 25.2421C135.054 25.2177 134.629 25.1348 134.235 25.1933C134.148 25.2275 133.861 25.3688 133.877 25.515C134.163 25.7246 134.419 25.7051 134.701 25.5735C134.962 25.4955 135.218 25.3981 135.469 25.2908L135.464 25.2421Z" fill="#F37260"/>
<path d="M135.577 26.1484C135.167 26.3337 134.717 26.4799 134.358 26.7334C134.297 26.8016 134.077 27.0843 134.169 27.2013C134.553 27.2452 134.788 27.0892 134.993 26.8308C135.208 26.6261 135.408 26.4117 135.607 26.1874L135.577 26.1484Z" fill="#F37260"/>
<path d="M145.182 23.9844L143.293 32.1538L145.182 32.4462H147.158L145.182 23.9844Z" fill="#F9B5A9"/>
<path d="M168.444 27.4589L168.746 20.4155C168.746 20.4155 164.016 20.3472 162.987 9.6968C162.987 9.6968 167.19 6.28476 170.733 8.14676C170.733 8.14676 176.247 13.957 172.858 20.8931L171.516 21.1954C170.615 21.4001 169.97 22.1459 169.929 23.0281L169.796 26.1184L168.439 27.4589H168.444Z" fill="#E0E0E0"/>
<path d="M165.5 18.1055L165.06 28.3416C165.06 28.3416 163.509 29.8136 161.947 29.877C161.947 29.877 163.509 29.6284 163.724 30.6276C163.939 31.6269 164.845 43.1157 160.739 45.6747C160.739 45.6747 165.941 42.8281 167.871 39.109C167.871 39.109 168.818 28.6292 168.746 20.4159L165.5 18.1055Z" fill="#F9B5A9"/>
<path d="M187.182 155.177L186.926 162.391L186.306 179.744C186.306 179.744 184.202 191.442 170.86 191.442C157.518 191.442 157.16 183.716 157.16 183.716L153.479 183.921C153.479 183.921 151.723 191.442 139.088 191.442C126.452 191.442 124.169 181.333 124.169 181.333L123.201 154.178L187.182 155.182V155.177Z" fill="#414042"/>
<path d="M185.777 159.471C185.777 159.471 173.818 165.885 154.691 165.871C146.663 165.866 123.384 159.471 123.384 159.471H185.777Z" fill="#231F20"/>
<path d="M186.614 171.042L184.024 245.249C184.024 245.249 181.74 250.431 173.666 250.431C165.593 250.431 164.364 245.585 164.364 245.585L155.676 175.561C155.676 175.561 157.632 165.866 170.333 163.697C183.035 161.527 186.619 171.042 186.619 171.042H186.614Z" fill="#414042"/>
<path d="M157.153 183.716C157.153 183.716 159.309 186.26 163.763 186.597L168.232 234.56C168.232 234.56 163.778 237.241 163.778 240.916C163.778 240.916 163.778 244.591 163.778 240.916L157.153 183.716Z" fill="#231F20"/>
<path d="M123.755 171.378L126.346 245.585C126.346 245.585 128.629 250.766 136.703 250.766C144.777 250.766 146.005 245.921 146.005 245.921L153.695 183.944L154.693 175.897C154.693 175.897 152.738 166.202 140.036 164.033C127.334 161.863 123.75 171.378 123.75 171.378H123.755Z" fill="#414042"/>
<path d="M153.701 183.944C153.701 183.944 151.899 186.596 148.566 187.264L143.298 242.548L146.513 241.793L153.701 183.949V183.944Z" fill="#231F20"/>
<path d="M176.583 295.642H176.588C179.277 295.642 181.457 297.717 181.457 300.277V308.135C181.457 310.695 179.277 312.77 176.588 312.77H176.583C173.894 312.77 171.714 310.695 171.714 308.135V300.277C171.714 297.717 173.894 295.642 176.583 295.642Z" fill="#F8A38E"/>
<path d="M176.59 299.232C176.59 299.232 174.475 301.299 174.276 307.255H171.716L171.839 299.11L176.585 299.237L176.59 299.232Z" fill="#F6927F"/>
<path d="M184.172 240.912L182.969 300.066H171.142C171.142 300.066 163.376 264.148 163.78 240.912C163.78 240.912 164.446 233.303 173.968 233.303C184.172 233.303 184.172 240.912 184.172 240.912Z" fill="#414042"/>
<path d="M168.235 234.556L173.969 300.067H171.143C171.143 300.067 162.644 255.276 163.765 239.737C163.765 239.737 165.014 236.101 168.235 234.556Z" fill="#231F20"/>
<path d="M133.315 313.646H133.31C130.621 313.646 128.441 311.57 128.441 309.01V301.153C128.441 298.592 130.621 296.517 133.31 296.517H133.315C136.004 296.517 138.184 298.592 138.184 301.153V309.01C138.184 311.57 136.004 313.646 133.315 313.646Z" fill="#F8A38E"/>
<path d="M126.115 241.789L127.318 300.943H139.144C139.144 300.943 146.911 265.024 146.506 241.789C146.506 241.789 145.841 234.18 136.318 234.18C126.115 234.18 126.115 241.789 126.115 241.789Z" fill="#414042"/>
<path d="M143.85 236.704L135.393 300.943H139.145C139.145 300.943 146.866 265.984 146.507 241.788C146.507 241.788 146.036 238.439 143.85 236.704Z" fill="#231F20"/>
<path d="M133.318 301.07C133.318 301.07 131.204 303.137 131.004 309.093H128.444L128.567 300.948L133.313 301.075L133.318 301.07Z" fill="#F6927F"/>
<path d="M171.718 305.082L157.189 314.031C154.091 315.333 154.772 321.158 158.039 321.245L183.34 321.923C185.572 321.981 187.134 319.135 186.325 316.488L181.83 306.842C181.83 306.842 182.449 308.387 179.039 308.387C175.63 308.387 171.723 305.087 171.723 305.087L171.718 305.082Z" fill="#D1D3D4"/>
<path d="M186.389 316.737C186.389 316.737 184.987 320.71 182.483 320.753C179.98 320.797 160.935 320.753 159.312 318.706C157.689 316.659 157.55 313.812 160.402 312.053L157.279 313.769C153.403 315.899 154.182 321.319 158.656 321.377L183.988 321.923C183.988 321.923 187.49 320.539 186.389 316.737Z" fill="#A7A9AC"/>
<path d="M128.502 305.623L104.127 313.276C99.9801 314.577 100.897 320.402 105.264 320.49L139.135 321.167C142.12 321.226 144.214 318.379 143.134 315.732L139.012 305.628C139.012 305.628 137.937 307.631 133.376 307.631C128.814 307.631 128.507 305.628 128.507 305.628L128.502 305.623Z" fill="#D1D3D4"/>
<path d="M143.017 315.982C143.017 315.982 141.169 319.954 137.887 319.998C134.605 320.042 109.58 319.998 107.451 317.951C105.321 315.904 105.326 313.486 109.074 311.727L104.778 313.013C99.3719 314.607 100.821 321.168 106.585 320.622L139.863 321.168C139.863 321.168 144.461 319.784 143.022 315.982H143.017Z" fill="#A7A9AC"/>
<path d="M105.708 68.8006L72.8383 70.9019C72.8383 70.9019 68.5906 73.0676 68.773 78.9564C68.9554 84.8453 73.5525 85.9117 73.5525 85.9117L104.863 84.0086L105.708 68.8006Z" fill="#F8A38E"/>
<path d="M102.404 78.2252L69.0297 81.2586C69.0297 81.2586 66.5461 86.4004 73.4769 85.8958C76.249 85.6931 103.723 84.0488 103.723 84.0488L102.404 78.2252Z" fill="#F6927F"/>
<path d="M135.342 79.5152C133.099 83.2224 129.701 84.963 126.4 85.052L102.766 87.5972L100.418 84.0742L99.9284 68.4695L123.797 66.2213L125.158 66.0468L125.173 66.0439C131.528 65.6771 137.664 71.3488 135.347 79.5143L135.342 79.5152Z" fill="#E9F5F1"/>
<path d="M135.893 76.372C135.893 76.372 131.261 72.1117 126.898 69.8606C123.54 68.131 100.033 71.4714 100.033 71.4714L99.9391 68.4881L125.212 66.0613C125.212 66.0613 135.718 65.8045 135.893 76.372Z" fill="#C7E5DA"/>
<path d="M153.367 162.362C136.518 162.528 120.299 158.185 120.299 158.185C119.219 148.304 123.365 119.507 123.365 119.507C123.365 119.507 118.2 79.1374 122.06 69.9444C125.92 60.7514 144.423 56.4084 144.423 56.4084C146.071 60.4931 152.128 60.7124 152.128 60.7124H153.187H154.247C154.247 60.7124 160.304 60.4931 161.952 56.4084C161.952 56.4084 185.559 56.0331 189.419 65.2261C193.279 74.4191 191.262 90.0218 191.262 90.0218C191.262 90.0218 192.696 128.368 188.61 161.445C188.61 161.445 170.215 162.532 153.367 162.367" fill="#E9F5F1"/>
<path d="M150.422 93.5164V86.6777H165.023V100.428H157.682V93.5164H150.422Z" fill="#106888"/>
<path d="M150.418 100.429H157.76V107.419H150.418V100.429Z" fill="#8B4593"/>
<path d="M135.901 100.429H143.242V107.419H135.901V100.429Z" fill="#F3CD13"/>
<path fill-rule="evenodd" clip-rule="evenodd" d="M150.424 79.6152H135.899V86.605H128.716V100.434H135.899V93.5948H143.241V86.605H150.424V79.6152Z" fill="#189A73"/>
<path d="M147.488 59.518L119.566 69.4276L127.337 63.8318C127.337 63.8318 137.72 56.9931 144.411 56.4082C144.411 56.4082 145.062 58.3628 147.483 59.518H147.488Z" fill="#C7E5DA"/>
<path d="M123.358 119.507C126.747 148.075 123.194 157.098 138.025 161.441L120.291 158.18C120.291 158.18 120.45 124.61 123.358 119.502" fill="#C7E5DA"/>
<path d="M36.9732 71.4046C36.9732 71.4046 37.0892 70.1652 34.8266 68.7715C32.5641 67.3778 17.2781 57.1786 16.6868 60.2698C16.6868 60.2698 16.3228 61.0769 23.0274 64.8526C23.0274 64.8526 24.8585 66.5093 21.5796 65.9134C18.3007 65.3175 6.64372 62.1609 6.11645 64.1885C5.58918 66.2162 18.6924 67.9909 18.4633 69.0561C18.2342 70.1213 4.18427 67.1345 3.59689 68.8907C3.00951 70.6468 17.7456 72.3759 17.5779 73.3673C17.4128 74.3629 4.86177 71.6818 4.91477 74.1034C4.96777 76.525 16.8502 75.6479 16.952 76.4891C17.0539 77.3303 8.45152 76.8655 8.44469 78.4563C8.43785 80.0471 24.0529 81.5463 30.9361 77.6318C30.9361 77.6318 34.7678 78.7217 35.4819 77.1717C36.196 75.6217 36.9713 71.4113 36.9713 71.4113L36.9732 71.4046Z" fill="#F8A38E"/>
<path d="M265.501 96.0444C265.501 96.0444 265.432 94.802 267.744 93.49C270.055 92.1779 285.714 82.505 286.191 85.6098C286.191 85.6098 286.525 86.4287 279.681 89.9744C279.681 89.9744 277.788 91.5638 281.087 91.0828C284.385 90.6017 296.154 87.8394 296.604 89.8852C297.053 91.931 283.891 93.2583 284.084 94.3269C284.278 95.3956 298.429 92.8934 298.951 94.67C299.473 96.4465 284.68 97.6662 284.81 98.6668C284.941 99.6674 297.582 97.4174 297.436 99.8375C297.29 102.258 285.445 100.976 285.314 101.812C285.184 102.648 293.8 102.479 293.741 104.069C293.683 105.659 278.031 106.623 271.295 102.475C271.295 102.475 267.424 103.435 266.766 101.86C266.109 100.285 265.499 96.0538 265.499 96.0538L265.501 96.0444Z" fill="#F8A38E"/>
<path d="M272.523 99.0643C273.459 95.4483 271.912 94.2891 267.654 92.9797L232.375 82.4934C228.221 81.5605 225.909 84.4812 224.973 88.0972C224.036 91.7132 225.36 96.0937 229.513 97.0266L265.723 102.217C270.236 102.697 271.587 102.68 272.523 99.0643Z" fill="#F8A38E"/>
<path d="M234.591 93.1955C234.591 93.1955 266.532 100.377 267.113 101.392C267.694 102.407 265.734 102.23 265.734 102.23L229.547 97.0543L234.591 93.1955Z" fill="#F6927F"/>
<path d="M232.813 86.9257L271.447 94.2365L232.369 82.4832C232.369 82.4832 230.123 81.6128 227.783 83.1045C227.783 83.1045 225.442 84.5962 227.783 83.1045L232.813 86.9257Z" fill="#F9B5A9"/>
<path d="M29.6323 72.3795C30.1509 68.6707 32.0336 68.1471 36.5024 68.4557L73.3645 71.3804C77.5886 72.0069 78.6231 75.5629 78.1019 79.2675C77.5833 82.9764 74.6695 86.5801 70.441 85.9561L34.7484 77.7587C30.3659 76.5812 29.1155 76.0817 29.634 72.3729L29.6323 72.3795Z" fill="#F8A38E"/>
<path d="M68.4595 82.3646C68.4595 82.3646 34.6671 75.7576 33.7385 76.4997C32.8099 77.2418 34.7004 77.7792 34.7004 77.7792L70.7148 86.0107L68.4621 82.3689L68.4595 82.3646Z" fill="#F6927F"/>
<path d="M203.596 71.5329L234.343 82.9213C234.343 82.9213 237.748 86.196 235.806 91.7491C233.865 97.3022 229.156 97.0042 229.156 97.0042L199.839 86.2498L203.596 71.5329Z" fill="#F8A38E"/>
<path d="M203.899 81.4742L234.067 94.9167C234.067 94.9167 231.793 97.955 229.197 97.0037C226.601 96.0524 200.902 86.6166 200.902 86.6166L203.899 81.4742Z" fill="#F6927F"/>
<path d="M207.142 77.5235L236.389 89.0065L236.474 88.2381C236.43 86.7286 235.573 84.1571 234.442 83.007L234.058 82.8045L207.837 73.391L207.142 77.5235Z" fill="#F9B5A9"/>
<path d="M175.794 71.2029C176.685 75.4025 179.321 78.1079 182.411 79.2241L203.918 89.0313L207.306 86.4463L212.94 71.8914L191.116 62.291L189.888 61.7026L189.877 61.6932C183.989 59.3564 176.306 62.7792 175.794 71.2029Z" fill="#E9F5F1"/>
<path d="M248.526 21.9766L249.756 22.5662C249.355 22.34 248.948 22.1421 248.526 21.9766Z" fill="white"/>
<path d="M175.804 71.1671L177.792 73.1933C180.195 75.6421 183.148 77.5382 186.432 78.744L207.354 86.4308L203.962 89.0199L180.936 78.5088C180.936 78.5088 176.006 75.1854 175.8 71.164L175.804 71.1671Z" fill="#C7E5DA"/>
<path d="M176.678 67.7897C176.678 67.7897 182.043 62.8692 185.454 63.3838C188.865 63.8985 212.053 74.1757 212.053 74.1757L212.932 71.8957L189.86 61.6987C189.86 61.6987 180.443 58.5347 176.678 67.7897Z" fill="#F5FBF8"/>
<path d="M280.021 97.3619C269.441 98.1743 197.696 103.211 153.054 103.211C119.008 103.211 76.7713 91.7564 25.8308 71.2842" stroke="#FF6464" stroke-width="25" stroke-linecap="round"/>
</svg>
