<svg width="583" height="88" viewBox="0 0 583 88" fill="none" xmlns="http://www.w3.org/2000/svg">
<g clip-path="url(#clip0_2401_111)">
<g style="mix-blend-mode:multiply" opacity="0.3">
<path d="M583.419 87.6244L576.88 82L573.44 79.0352L553.06 61.4673L550.96 59.6715L535.984 46.7792L530.715 42.239L518.721 31.9049L516.654 30.1261L499.289 15.167L496.002 12.3378L485.855 3.59619H106.017L100.273 8.54299L92.5483 15.2178L75.3022 30.1261L73.2353 31.9049L61.2749 42.2221L56.0061 46.7792L39.6071 60.9251L38.9633 61.4842L21.2767 76.7651L15.2118 82L8.68945 87.6244H583.419Z" fill="#C1B5AA"/>
</g>
<path d="M574.948 84.2363H0.21875L97.5458 0.208008H477.384L574.948 84.2363Z" fill="white"/>
<path d="M95.174 10.593C99.5777 10.4867 103.972 11.0581 108.202 12.2871C117.669 14.8622 127.653 14.8622 137.12 12.2871C145.644 9.96014 154.635 9.96014 163.159 12.2871C172.621 14.8624 182.599 14.8624 192.061 12.2871C200.59 9.96037 209.587 9.96037 218.116 12.2871C227.584 14.8622 237.567 14.8622 247.035 12.2871C255.564 9.96037 264.561 9.96037 273.09 12.2871C282.552 14.8624 292.53 14.8624 301.992 12.2871C310.521 9.96037 319.518 9.96037 328.047 12.2871C337.515 14.8622 347.498 14.8622 356.966 12.2871C365.495 9.96037 374.492 9.96037 383.021 12.2871C392.489 14.8622 402.473 14.8622 411.94 12.2871C420.469 9.96037 429.466 9.96037 437.996 12.2871C447.457 14.8624 457.435 14.8624 466.897 12.2871C471.127 11.0581 475.521 10.4867 479.925 10.593C483.586 10.5164 487.242 10.915 490.801 11.7788L483.11 5.15483C482.127 5.15483 481.094 5.07015 479.925 5.07015C475.038 4.9777 470.165 5.62893 465.474 7.00147C456.945 9.32821 447.948 9.32821 439.419 7.00147C429.957 4.42619 419.979 4.42619 410.517 7.00147C401.982 9.32799 392.98 9.32799 384.445 7.00147C374.983 4.42619 365.005 4.42619 355.543 7.00147C347.008 9.32799 338.006 9.32799 329.47 7.00147C320.009 4.42619 310.031 4.42619 300.569 7.00147C292.039 9.32821 283.043 9.32821 274.513 7.00147C265.046 4.4264 255.062 4.4264 245.595 7.00147C237.065 9.32821 228.068 9.32821 219.539 7.00147C210.077 4.42619 200.099 4.42619 190.637 7.00147C182.108 9.32821 173.111 9.32821 164.582 7.00147C155.12 4.42619 145.142 4.42619 135.68 7.00147C127.151 9.32821 118.154 9.32821 109.625 7.00147C104.934 5.62893 100.061 4.9777 95.174 5.07015C93.9542 5.07015 92.853 5.07013 91.7857 5.15483L84.0605 11.8297C87.6951 10.9335 91.4314 10.5178 95.174 10.593Z" fill="#82B2C2"/>
<path d="M67.6953 28.5842C72.4215 28.6734 77.134 28.045 81.6718 26.7207C90.511 24.3039 99.8368 24.3039 108.676 26.7207C117.834 29.205 127.488 29.205 136.646 26.7207C145.479 24.3037 154.8 24.3037 163.633 26.7207C172.785 29.2052 182.434 29.2052 191.586 26.7207C200.425 24.3039 209.751 24.3039 218.59 26.7207C227.748 29.205 237.402 29.205 246.56 26.7207C255.399 24.3039 264.725 24.3039 273.565 26.7207C282.717 29.2052 292.365 29.2052 301.517 26.7207C310.357 24.3039 319.682 24.3039 328.522 26.7207C337.679 29.205 347.334 29.205 356.492 26.7207C365.331 24.3039 374.657 24.3039 383.496 26.7207C392.654 29.205 402.308 29.205 411.466 26.7207C420.305 24.3039 429.631 24.3039 438.47 26.7207C447.622 29.2052 457.271 29.2052 466.423 26.7207C475.268 24.3033 484.599 24.3033 493.444 26.7207C497.982 28.045 502.694 28.6734 507.421 28.5842C508.437 28.5842 509.369 28.5842 510.25 28.5842L508.183 26.8054H507.421C502.837 26.9073 498.266 26.3016 493.868 25.0096C484.713 22.5022 475.052 22.5022 465.898 25.0096C457.056 27.4042 447.736 27.4042 438.893 25.0096C429.745 22.502 420.089 22.502 410.941 25.0096C402.066 27.4193 392.709 27.4193 383.835 25.0096C374.686 22.502 365.031 22.502 355.882 25.0096C347.034 27.404 337.708 27.404 328.86 25.0096C319.712 22.502 310.056 22.502 300.908 25.0096C292.065 27.4042 282.745 27.4042 273.903 25.0096C264.754 22.502 255.099 22.502 245.95 25.0096C237.102 27.404 227.777 27.404 218.929 25.0096C209.78 22.502 200.125 22.502 190.976 25.0096C182.134 27.4042 172.814 27.4042 163.972 25.0096C154.823 22.502 145.168 22.502 136.019 25.0096C127.177 27.4042 117.857 27.4042 109.015 25.0096C99.8659 22.502 90.2108 22.502 81.0619 25.0096C76.6638 26.3029 72.0922 26.9087 67.509 26.8054H66.645L64.5781 28.5842C65.6793 28.5503 66.7127 28.5842 67.6953 28.5842Z" fill="#82B2C2"/>
<path d="M67.6951 46.5758C72.5821 46.6683 77.4548 46.0171 82.146 44.6446C90.6753 42.3178 99.6722 42.3178 108.202 44.6446C117.669 47.2196 127.653 47.2196 137.12 44.6446C145.644 42.3176 154.635 42.3176 163.159 44.6446C172.62 47.2198 182.599 47.2198 192.06 44.6446C200.59 42.3178 209.587 42.3178 218.116 44.6446C227.583 47.2196 237.567 47.2196 247.034 44.6446C255.564 42.3178 264.561 42.3178 273.09 44.6446C282.552 47.2198 292.53 47.2198 301.992 44.6446C310.521 42.3178 319.518 42.3178 328.047 44.6446C337.515 47.2196 347.498 47.2196 356.966 44.6446C365.495 42.3178 374.492 42.3178 383.021 44.6446C392.489 47.2196 402.472 47.2196 411.94 44.6446C420.469 42.3178 429.466 42.3178 437.995 44.6446C447.457 47.2198 457.435 47.2198 466.897 44.6446C475.432 42.318 484.434 42.318 492.97 44.6446C502.431 47.2198 512.409 47.2198 521.871 44.6446C523.73 44.1112 525.62 43.6925 527.53 43.3909L522.244 38.8507L520.448 39.325C511.919 41.6518 502.922 41.6518 494.393 39.325C484.925 36.7499 474.942 36.7499 465.474 39.325C456.945 41.6518 447.948 41.6518 439.418 39.325C429.957 36.7497 419.979 36.7497 410.517 39.325C401.982 41.6515 392.979 41.6515 384.444 39.325C374.983 36.7497 365.004 36.7497 355.543 39.325C347.008 41.6515 338.005 41.6515 329.47 39.325C320.008 36.7497 310.03 36.7497 300.569 39.325C292.039 41.6518 283.042 41.6518 274.513 39.325C265.046 36.7499 255.062 36.7499 245.594 39.325C237.065 41.6518 228.068 41.6518 219.539 39.325C210.077 36.7497 200.099 36.7497 190.637 39.325C182.108 41.6518 173.111 41.6518 164.582 39.325C155.12 36.7497 145.142 36.7497 135.68 39.325C127.151 41.6518 118.154 41.6518 109.625 39.325C100.163 36.7497 90.1847 36.7497 80.7229 39.325C72.1936 41.6518 63.1968 41.6518 54.6674 39.325C54.0575 39.1556 53.4477 38.9862 52.8039 38.8337L47.5352 43.3909C49.4622 43.691 51.3688 44.1097 53.2443 44.6446C57.9358 46.0158 62.8082 46.667 67.6951 46.5758Z" fill="#82B2C2"/>
<path d="M53.7186 59.0279C62.8706 61.5124 72.5195 61.5124 81.6715 59.0279C90.5107 56.6111 99.8366 56.6111 108.676 59.0279C117.834 61.5122 127.488 61.5122 136.646 59.0279C145.479 56.6109 154.8 56.6109 163.633 59.0279C172.785 61.5124 182.434 61.5124 191.586 59.0279C200.425 56.6111 209.751 56.6111 218.59 59.0279C227.748 61.5122 237.402 61.5122 246.56 59.0279C255.399 56.6111 264.725 56.6111 273.564 59.0279C282.716 61.5124 292.365 61.5124 301.517 59.0279C310.356 56.6111 319.682 56.6111 328.521 59.0279C337.679 61.5122 347.333 61.5122 356.491 59.0279C365.33 56.6111 374.656 56.6111 383.496 59.0279C392.653 61.5122 402.308 61.5122 411.465 59.0279C420.305 56.6111 429.63 56.6111 438.47 59.0279C447.622 61.5124 457.271 61.5124 466.423 59.0279C475.267 56.6105 484.599 56.6105 493.444 59.0279C502.596 61.5124 512.245 61.5124 521.397 59.0279C525.794 57.7291 530.366 57.1176 534.95 57.2152C538.195 57.1696 541.437 57.4592 544.623 58.0792L541.946 55.7921C539.626 55.5027 537.288 55.3669 534.95 55.3855C530.218 55.2981 525.5 55.9263 520.956 57.249C512.117 59.6658 502.791 59.6658 493.952 57.249C484.794 54.7647 475.14 54.7647 465.982 57.249C457.143 59.6658 447.817 59.6658 438.978 57.249C429.826 54.7645 420.177 54.7645 411.025 57.249C402.153 59.6818 392.791 59.6818 383.919 57.249C374.767 54.7645 365.118 54.7645 355.966 57.249C347.121 59.6664 337.79 59.6664 328.945 57.249C319.793 54.7645 310.144 54.7645 300.992 57.249C292.153 59.6658 282.827 59.6658 273.988 57.249C264.836 54.7645 255.187 54.7645 246.035 57.249C237.19 59.6664 227.859 59.6664 219.014 57.249C209.862 54.7645 200.213 54.7645 191.061 57.249C182.222 59.6658 172.896 59.6658 164.056 57.249C154.904 54.7645 145.256 54.7645 136.104 57.249C127.264 59.6658 117.938 59.6658 109.099 57.249C99.9473 54.7645 90.2984 54.7645 81.1463 57.249C72.3071 59.6658 62.9813 59.6658 54.1421 57.249C49.604 55.9259 44.8918 55.2977 40.1656 55.3855C37.8101 55.366 35.4558 55.5018 33.1181 55.7921L30.4414 58.0961C33.6424 57.4582 36.9021 57.1629 40.1656 57.2152C44.7497 57.1171 49.3214 57.7286 53.7186 59.0279Z" fill="#F2E8DD"/>
<path d="M562.341 73.377C557.954 73.4813 553.577 72.9099 549.364 71.6829C539.897 69.1079 529.913 69.1079 520.446 71.6829C511.916 74.0097 502.919 74.0097 494.39 71.6829C484.923 69.1079 474.939 69.1079 465.471 71.6829C456.942 74.0097 447.945 74.0097 439.416 71.6829C429.954 69.1076 419.976 69.1076 410.514 71.6829C401.979 74.0094 392.977 74.0094 384.442 71.6829C374.98 69.1076 365.002 69.1076 355.54 71.6829C347.005 74.0094 338.003 74.0094 329.468 71.6829C320.006 69.1076 310.028 69.1076 300.566 71.6829C292.037 74.0097 283.04 74.0097 274.511 71.6829C265.043 69.1079 255.059 69.1079 245.592 71.6829C237.063 74.0097 228.066 74.0097 219.536 71.6829C210.075 69.1076 200.097 69.1076 190.635 71.6829C182.105 74.0097 173.109 74.0097 164.579 71.6829C155.117 69.1076 145.139 69.1076 135.678 71.6829C127.148 74.0097 118.151 74.0097 109.622 71.6829C100.16 69.1076 90.1822 69.1076 80.7204 71.6829C72.191 74.0097 63.1942 74.0097 54.6649 71.6829C45.2031 69.1076 35.225 69.1076 25.7632 71.6829C21.5559 72.9103 17.1846 73.4817 12.8032 73.377L6.73828 78.6119C8.73128 78.8079 10.7329 78.904 12.7355 78.8998C17.6224 78.991 22.4948 78.3398 27.1863 76.9686C35.7156 74.6418 44.7124 74.6418 53.2418 76.9686C62.7036 79.5438 72.6816 79.5438 82.1434 76.9686C90.6728 74.6418 99.6696 74.6418 108.199 76.9686C117.667 79.5436 127.65 79.5436 137.118 76.9686C145.641 74.6416 154.633 74.6416 163.156 76.9686C172.618 79.5438 182.596 79.5438 192.058 76.9686C200.587 74.6418 209.584 74.6418 218.113 76.9686C227.581 79.5436 237.564 79.5436 247.032 76.9686C255.561 74.6418 264.558 74.6418 273.087 76.9686C282.549 79.5438 292.527 79.5438 301.989 76.9686C310.518 74.6418 319.515 74.6418 328.045 76.9686C337.512 79.5436 347.496 79.5436 356.963 76.9686C365.493 74.6418 374.489 74.6418 383.019 76.9686C392.486 79.5436 402.47 79.5436 411.937 76.9686C420.467 74.6418 429.463 74.6418 437.993 76.9686C447.455 79.5438 457.433 79.5438 466.894 76.9686C475.43 74.642 484.432 74.642 492.967 76.9686C502.429 79.5438 512.407 79.5438 521.869 76.9686C530.404 74.642 539.406 74.642 547.941 76.9686C552.638 78.3395 557.516 78.9906 562.409 78.8998C564.411 78.904 566.413 78.8079 568.406 78.6119L562.341 73.377Z" fill="#F2E8DD"/>
</g>
<defs>
<clipPath id="clip0_2401_111">
<rect width="583" height="88" fill="white"/>
</clipPath>
</defs>
</svg>
